HIERARCHY
ROOT lpalm
{
OFFSET	0.000000	0.000000	0.000000
CHANNELS	6	Xposition	Yposition	Zposition	Zrotation	Xrotation	Yrotation
JOINT lthumbA
{
OFFSET	-6.570000	-2.200000	3.500000
CHANNELS	3	Zrotation	Xrotation	Yrotation
JOINT lthumbB
{
OFFSET	0.000000	0.000000	7.000000
CHANNELS	3	Zrotation	Xrotation	Yrotation
JOINT lthumbC
{
OFFSET	0.000000	0.000000	3.800000
CHANNELS	3	Zrotation	Xrotation	Yrotation
End Site
{
OFFSET	0.000000	0.000000	3.000000
}
}
}
}
JOINT lindexA
{
OFFSET	-2.730000	0.000000	10.400000
CHANNELS	3	Zrotation	Xrotation	Yrotation
JOINT lindexB
{
OFFSET	0.000000	0.000000	4.600000
CHANNELS	3	Zrotation	Xrotation	Yrotation
JOINT lindexC
{
OFFSET	0.000000	0.000000	3.000000
CHANNELS	3	Zrotation	Xrotation	Yrotation
End Site
{
OFFSET	0.000000	0.000000	2.600000
}
}
}
}
JOINT lmiddleA
{
OFFSET	-0.610000	0.000000	10.000000
CHANNELS	3	Zrotation	Xrotation	Yrotation
JOINT lmiddleB
{
OFFSET	0.000000	0.000000	5.100000
CHANNELS	3	Zrotation	Xrotation	Yrotation
JOINT lmiddleC
{
OFFSET	0.000000	0.000000	3.100000
CHANNELS	3	Zrotation	Xrotation	Yrotation
End Site
{
OFFSET	0.000000	0.000000	2.800000
}
}
}
}
JOINT lringA
{
OFFSET	1.880000	0.000000	9.700000
CHANNELS	3	Zrotation	Xrotation	Yrotation
JOINT lringB
{
OFFSET	0.000000	0.000000	4.800000
CHANNELS	3	Zrotation	Xrotation	Yrotation
JOINT lringC
{
OFFSET	0.000000	0.000000	3.000000
CHANNELS	3	Zrotation	Xrotation	Yrotation
End Site
{
OFFSET	0.000000	0.000000	2.700000
}
}
}
}
JOINT llittleA
{
OFFSET	3.540000	0.000000	8.600000
CHANNELS	3	Zrotation	Xrotation	Yrotation
JOINT llittleB
{
OFFSET	0.000000	0.000000	3.800000
CHANNELS	3	Zrotation	Xrotation	Yrotation
JOINT llittleC
{
OFFSET	0.000000	0.000000	2.300000
CHANNELS	3	Zrotation	Xrotation	Yrotation
End Site
{
OFFSET	0.000000	0.000000	2.400000
}
}
}
}
}
MOTION
Frames: 36
Frame Time: 0.023541
0 0 0 0 0 0 0 0 0 0 0 0 0 0 0 0 0 0 0 0 0 0 0 0 0 0 0 0 0 0 0 0 0 0 0 0 0 0 0 0 0 0 0 0 0 0 0 0 0 0 0
0 0 0 0.16 -7.05 1.29 29.03 14.9 -33.75 -14 -5.44 20.81 0 0 18.62 0 51.94 -5.91 0 45.23 0 0 9.23 0 0 19.9 -8.15 0 11.96 0 0 2.31 0 0 -5.46 2.32 0 5.11 0 0 4.74 0 0 -1.65 6.14 0 12.11 0 0 5.62 0
0 0 0 0.54 9.61 -3.22 -9.82 -3.91 -44.97 -15 0 0 0 0 9.87 0 28.65 -9.29 0 73.76 0 0 21.04 0 0 26.23 3.73 0 40.39 0 0 7.81 0 0 31.86 5.26 0 45.13 0 0 3.72 0 0 23.79 1.37 0 23.91 0 0 0 0
0 0 0 0.34 5.78 -3.33 3.64 2.96 -16.74 -14.37 -4.34 16.47 0 0 9.66 0 -2.21 -7.69 0 6.32 0 0 4.33 0 0 1.78 2.53 0 3.97 0 0 4.14 0 0 10.71 -0.33 0 18.9 0 0 1.6 0 0 19.11 6.47 0 21.31 0 0 0.17 0
0 0 0 0 0.5 -0.07 -21.57 7.04 -77.91 -15 0 0 0 0 1.09 0 86.45 0.37 0 64.31 0 0 10.59 0 180 78.19 -179.63 0 65.11 0 0 6.29 0 180 89.76 -179.63 0 66.41 0 0 2.68 0 0 11.03 -1.59 0 20.81 0 0 10.36 0
0 0 0 0.01 -2.44 0.19 -14.58 -7.99 -29.16 -14.97 -1.04 3.87 0 0 2.96 0 -24.04 -1.9 0 0 0 0 5.98 0 0 -29.67 1.37 0 0 0 0 5.12 0 0 -31.34 3.07 0 0.8 0 0 3.8 0 0 -19.57 2.29 0 1.89 0 0 10.62 0
0 0 0 0.39 6.47 -3.46 -16.43 3.35 -76.51 -15 0 0 0 0 -0.44 0 64.78 -0.62 0 52.32 0 0 10.91 0 0 77.69 0.09 0 51.54 0 0 7.23 0 0 65.42 0.11 0 51.67 0 0 2.83 0 0 11.16 -0.38 0 17.32 0 0 5.08 0
0 0 0 0.15 1.27 -6.73 65.39 23.27 -56.6 -3.97 -14.48 74.49 0 0 22.16 0 -4.1 -11.37 0 5.5 0 0 5.17 0 0 -5.7 1.1 0 1.49 0 0 4.36 0 0 -8.74 2.69 0 1.22 0 0 4.64 0 0 7.27 5.87 0 17.11 0 0 4.07 0
0 0 0 0.55 7.54 -4.16 -13.68 10.69 -86.65 -15 0 0 0 0 -0.6 0 83.75 1.21 0 55.8 0 0 8.72 0 180 81.88 -178.79 0 62.81 0 0 6.67 0 0 84.88 1.21 0 64.93 0 0 2.4 0 0 4.88 -4.23 0 19.9 0 0 8.08 0
0 0 0 0.38 23.72 -0.86 -2.41 -1.28 -74.52 -15 0 0 0 0 3.89 0 73.32 0.33 0 68.83 0 0 13.47 0 180 85.56 -179.67 0 65.22 0 0 5.28 0 0 87.83 0.33 0 66.04 0 0 1.84 0 0 1.98 -1.06 0 18.98 0 0 6.1 0
0 0 0 0.24 -6.04 2.31 31.74 17.18 -31.15 -13.56 -6.48 25.07 0 0 18.1 0 49.82 -5.77 0 46.9 0 0 9.19 0 0 18.28 -5.84 0 10.76 0 0 2.66 0 0 -2.11 1.98 0 5.43 0 0 5.06 0 0 5.93 6.22 0 11.68 0 0 5.06 0
0 0 0 0.3 2.53 -6.89 69.28 34.45 -48.85 -10.24 -11.02 46.6 0 0 19.47 0 -14.62 -28.98 0 3.84 0 0 8.36 0 0 -15.26 4.6 0 9.38 0 0 7.7 0 0 19.19 14.15 0 49.49 0 0 4.97 0 0 66.52 4.02 0 64.06 0 0 0 0
0 0 0 -0.36 20.9 0.95 0.9 -0.09 -21.01 -14.91 -1.63 6.1 0 0 10.39 0 6.05 -12 0 15.6 0 0 0.99 0 0 10.42 1.48 0 13.44 0 0 2.54 0 0 7.71 6.31 0 18.74 0 0 1.68 0 0 13.47 5.78 0 19.81 0 0 0 0
0 0 0 0.04 16.88 -0.15 -11.59 -2.35 -62.52 -15 0 0 0 0 7.23 0 -21.78 -10.23 0 13.93 0 0 5.24 0 0 -3.59 0.59 0 10.83 0 0 1.95 0 0 -1.06 5.36 0 12.4 0 0 1.33 0 0 10.96 2.78 0 16.01 0 0 0 0
0 0 0 0.15 -3.85 2.29 -0.59 -0.23 -20.6 -14.64 -3.31 12.48 0 0 10.01 0 -20.3 -0.37 0 6.53 0 0 7.61 0 0 15.72 -1.28 0 33.19 0 0 5.56 0 0 26.28 1.43 0 33.39 0 0 2.65 0 0 35.63 -1.75 0 28.83 0 0 1.96 0
0 0 0 0.78 25.7 -1.62 6.71 3.4 -24.51 -14.99 -0.42 1.55 0 0 13.14 0 -4.34 -16.4 0 21.14 0 0 4.66 0 0 8.99 7.5 0 32.72 0 0 5.89 0 0 24.34 10.29 0 48.18 0 0 4.97 0 0 25.65 7.58 0 46.52 0 0 11.85 0
0 0 0 0.49 4.85 -5.84 77.99 29.25 -60.5 -8.62 -12.32 54.6 0 0 28.33 0 -19.78 -30.79 0 3.8 0 0 7.9 0 0 -21.74 4.08 0 4.9 0 0 7.18 0 0 -10.23 10.69 0 11.33 0 0 6.64 0 0 64.62 3.2 0 73.6 0 0 13.76 0
0 0 0 0.5 7.24 -3.98 11.33 9.59 -14.3 -13.88 -5.76 22.1 0 0 12.52 0 -6.08 -10.6 0 7.78 0 0 5.35 0 0 -0.02 3.51 0 5.82 0 0 4.72 0 0 29.09 2.94 0 35.4 0 0 2.07 0 0 30.3 4.7 0 27.81 0 0 0 0
0 0 0 -0.59 -9.82 -3.42 -24.93 -5.26 -48.86 -15 0 0 0 0 14.53 0 1.21 2.5 0 9.43 0 0 7.21 0 0 69.14 -2.3 0 77.8 0 0 19.82 0 0 85.45 -0.8 0 69.6 0 0 14.8 0 180 88.21 179.2 0 73.59 0 0 18.37 0
0 0 0 0.47 6.25 -4.31 -14.55 13.08 -87.96 -15 0 0 0 0 -0.92 0 81.44 0.92 0 53.78 0 0 9.03 0 180 84.26 -179.08 0 59.03 0 0 6.88 0 0 82.42 0.92 0 61.75 0 0 2.42 0 0 7.49 -3.48 0 19.08 0 0 7.6 0
0 0 0 0.1 -3.18 1.81 37.15 17.21 -37.67 -13.64 -6.29 24.29 0 0 15.7 0 47.77 -5.48 0 45.6 0 0 9.9 0 0 19.82 -8.16 0 11.61 0 0 1.98 0 0 -4.61 3.4 0 4.97 0 0 4.6 0 0 2.95 5.46 0 12.54 0 0 3.64 0
0 0 0 0.47 10.24 -2.59 -14.98 -1.28 -66.21 -15 0 0 0 0 9.69 0 70.8 0.92 0 58.54 0 0 12.96 0 180 87.06 -179.08 0 64.91 0 0 6.77 0 0 87.18 0.92 0 66.53 0 0 1.41 0 0 17.09 -4.99 0 23.78 0 0 1.64 0
0 0 0 0.4 6.35 -3.63 74.21 26.82 -58.67 -11.28 -9.95 40.91 0 0 23.44 0 -32.69 -24.05 0 6.53 0 0 12.07 0 0 -19.08 4.3 0 5.96 0 0 9.2 0 0 53.55 2.01 0 81.43 0 0 2.05 0 0 78.43 1.3 0 79.24 0 0 0 0
0 0 0 1.6 15.14 -5.91 16.01 6.97 -35.57 -14.79 -2.51 9.4 0 0 20.98 0 24 -13.12 0 40.58 0 0 8.37 0 0 10.08 0.33 0 13.46 0 0 3.53 0 0 37.25 4.32 0 44.85 0 0 2.58 0 0 41.78 4.29 0 45.18 0 0 3.12 0
0 0 0 0.05 2.18 -1.33 -4.58 -3.17 -20.56 -14.19 -4.9 18.66 0 0 12.36 0 18.05 -10.02 0 21.31 0 0 4.41 0 0 17.66 1.6 0 11.74 0 0 2.56 0 0 15.83 2.44 0 12.57 0 0 1.76 0 0 20.9 2.83 0 16.33 0 0 0 0
0 0 0 0.04 -0.97 2.13 -19.11 -9.62 -31.71 -14.72 -2.92 10.96 0 0 3.02 0 -23.37 -3.25 0 2.9 0 0 5.55 0 0 -10.98 0.82 0 4.24 0 0 3.83 0 0 -10.87 2.81 0 7.71 0 0 2.48 0 0 9.83 1.64 0 14.05 0 0 0 0
0 0 0 0.74 9.18 -4.59 12.52 5.14 -38.33 -14.7 -3.04 11.43 0 0 34.72 0 37.25 -12.34 0 84.64 0 0 13.34 0 0 0.32 3.68 0 7.22 0 0 8.05 0 0 71.87 -0.54 0 72.5 0 0 1.29 0 0 79.44 -0.54 0 75.23 0 0 7.73 0
0 0 0 0.2 3.39 -3.3 -17.41 15.81 -87.74 -15 0 0 0 0 -1.71 0 87.24 2.21 0 63.02 0 0 9.13 0 180 77.16 -177.79 0 65.9 0 0 6.19 0 180 89.94 -177.79 0 66.18 0 0 2.58 0 0 2.34 -7.12 0 20.81 0 0 9.48 0
0 0 0 -0.16 -4.57 -1.98 13.17 9.64 -18.33 -13.78 -5.99 23.04 0 0 15.13 0 41.46 -7.38 0 39.68 0 0 8.51 0 0 29.58 -5.87 0 16.19 0 0 3.02 0 0 14.04 -1.08 0 11.33 0 0 4.09 0 0 23.22 1.9 0 19.5 0 0 0 0
0 0 0 0.57 -6.81 4.8 -8.45 -3.76 -29.79 -15 -0.07 0.27 0 0 7.21 0 -5.8 -0.8 0 5.92 0 0 4.02 0 0 -2.34 -1.12 0 1.04 0 0 3.25 0 0 -11.21 0.5 0 3.73 0 0 4.27 0 0 -0.86 2.49 0 11.34 0 0 2.95 0
0 0 0 0.23 5.07 -2.56 22.29 11 -34.36 -14.44 -4.1 15.53 0 0 17.67 0 40.37 -11.87 0 78.31 0 0 9.53 0 0 15.3 9.25 0 29.6 0 0 5.3 0 0 75.51 -1.51 0 71.5 0 0 1.41 0 0 80.55 -1.51 0 77.37 0 0 10.68 0
0 0 0 0.09 1.87 -2.67 -7.4 -4.14 -30.59 -14.97 -1.03 3.83 0 0 11.95 0 10.31 -1.84 0 9.1 0 0 2.16 0 0 48.27 -1.49 0 35.72 0 0 8.59 0 0 51.04 -1.86 0 35.31 0 0 4.86 0 0 60.74 0.7 0 38.39 0 0 3.66 0
0 0 0 -0.18 -9.22 -1.12 19.99 15.02 -16.76 -13.74 -6.07 23.4 0 0 18.29 0 50 -7.48 0 42.66 0 0 9.5 0 0 29.78 -7.23 0 14.53 0 0 3.27 0 0 9.59 -0.4 0 9.36 0 0 5.44 0 0 16.5 4.56 0 19.53 0 0 2.11 0
0 0 0 1 16.06 -3.48 6.77 2.28 -37.41 -15 0 0 0 0 14.86 0 20.28 -13.99 0 26.18 0 0 4.74 0 0 21.7 -0.62 0 17.72 0 0 2.56 0 0 24.02 2.31 0 26.68 0 0 1.64 0 0 23.75 5.65 0 26.38 0 0 0 0
0 0 0 0.04 26.32 -0.09 -4.99 -2.34 -63.72 -15 0 0 0 0 3.57 0 67.57 -0.37 0 55.35 0 0 11.83 0 0 86.89 -0.37 0 57.88 0 0 5.71 0 0 80.12 -0.37 0 61.44 0 0 1.99 0 0 5.4 1.31 0 16.33 0 0 5.19 0
0 0 0 0.24 2.04 -6.62 79.36 29.96 -61.26 -8.39 -12.48 55.66 0 0 28.33 0 -15.27 -30.46 0 3.55 0 0 8.02 0 0 -23.46 4.84 0 4.9 0 0 8.05 0 0 -8.32 11.62 0 13.51 0 0 7.21 0 0 66.81 4.07 0 73.4 0 0 7.95 0
